<?xml version="1.0" standalone="no"?>
<!DOCTYPE svg PUBLIC "-//W3C//DTD SVG 20010904//EN" "http://www.w3.org/TR/2001/REC-SVG-20010904/DTD/svg10.dtd">
<svg version="1.0" xmlns="http://www.w3.org/2000/svg"
    width="512.000000pt" height="512.000000pt" viewBox="0 0 512.000000 512.000000"
    preserveAspectRatio="xMidYMid meet">
    <metadata> Created by potrace 1.16, written by Peter Selinger 2001-2019 </metadata>
    <g transform="translate(0.000000,512.000000) scale(0.100000,-0.100000)"
        fill="#ffffff" stroke="none">
        <path
            d="M2300 4909 c-113 -13 -279 -46 -377 -75 -105 -30 -343 -116 -343
-124 0 -3 143 -148 318 -322 l317 -318 90 17 c121 22 377 22 505 0 243 -42
475 -139 666 -279 108 -80 291 -270 363 -378 358 -535 359 -1210 2 -1735 -33
-50 -74 -106 -91 -125 l-30 -35 -132 133 c-73 73 -136 135 -140 139 -5 3 -8
-253 -8 -570 l0 -577 577 0 578 0 -149 149 -148 148 44 49 c292 329 490 765
560 1229 20 139 18 542 -5 680 -168 1021 -939 1802 -1952 1976 -137 24 -514
34 -645 18z" />
        <path
            d="M668 4310 l153 -149 -64 -76 c-231 -270 -399 -597 -487 -945 -53
-210 -65 -311 -65 -580 0 -275 11 -368 71 -600 212 -816 868 -1472 1684 -1684
231 -60 325 -71 595 -71 285 0 409 16 650 82 106 29 335 112 335 122 0 3 -143
149 -318 324 l-317 317 -76 -14 c-304 -59 -668 -6 -954 136 -291 145 -554 407
-700 698 -249 496 -209 1095 104 1555 34 50 75 106 91 125 l30 35 133 -132
c72 -73 135 -136 140 -139 4 -4 7 252 7 569 l0 577 -582 0 -583 -1 153 -149z" />
        <path
            d="M2470 3512 l0 -97 -75 -12 c-316 -51 -494 -243 -457 -494 28 -187
160 -315 440 -426 l92 -36 0 -195 0 -194 -62 7 c-88 10 -266 56 -376 97 -51
20 -94 33 -95 29 -8 -16 1 -313 9 -320 15 -14 132 -51 224 -72 47 -10 133 -22
193 -26 l107 -6 0 -129 0 -128 85 0 85 0 0 129 0 130 48 6 c152 21 302 86 383
167 90 90 132 225 111 354 -29 174 -140 278 -425 398 l-117 49 0 184 0 184 48
-6 c89 -13 217 -43 285 -68 l69 -25 13 31 c45 110 104 261 102 263 -1 1 -42
16 -90 33 -98 34 -244 66 -354 76 l-73 7 0 94 0 94 -85 0 -85 0 0 -98z m0
-558 l0 -145 -49 27 c-69 37 -102 74 -108 121 -7 51 16 96 59 115 102 47 98
51 98 -118z m286 -641 c100 -75 53 -208 -83 -238 l-33 -7 0 156 0 156 43 -21
c23 -12 56 -33 73 -46z" />
    </g>
</svg>